# xmcd
#
# Track frame offsets: 
#        150
#        18266
#        37162
#        56372
#        76459
#        94835
#        106003
#        120351
#        138482
#        157767
#        173043
#        195217
#        208754
#        223810
#        234081
#        255168
#        272779
#        287668
#        301157
#        310659
#        327031
#
# Disc length: 4639 seconds
#
# Revision: 1
# Processed by: cddbd v1.5.2PL0 Copyright (c) Steve Scherf et al.
# Submitted via: ExactAudioCopy v0.99pb4
#
DISCID=09121d15
DTITLE=Various Artist - Don't Mess With Texas Music
DYEAR=2003
DGENRE=Country
TTITLE0=Ruthie Foster - Runaway Soul
TTITLE1=Stevie Ray Vaughn - Crossfire
TTITLE2=Houston Marchman - Suzanne
TTITLE3=Willie Nelson (featuring B. B. King) - Night Life
TTITLE4=Delbert McClinton - Same Kind Of Crazy
TTITLE5=Dixie Chicks - Some Days You Gotta Dance
TTITLE6=Slaid Cleaves - Broke Down
TTITLE7=Clarence "Gatemouth" Brown - Guitar In My Hand
TTITLE8=Michelle Shocked - What Can I Say?
TTITLE9=Jon Dee Graham - One Moment
TTITLE10=Marcia Ball - She's So Innocent
TTITLE11=Boz Scaggs - Found Love
TTITLE12=Asleep At The Wheel - Choo Choo Ch' Boogie
TTITLE13=Clint Black - One More Payment
TTITLE14=Kacy Crowley - Kind Of Perfect
TTITLE15=TBuckk and Slip Clay - St. Peter Have Mercy
TTITLE16=Ronnie Dawson - I.R.S. is C.O.D.
TTITLE17=Patricia Vonne - Severina
TTITLE18=Erykah Badu - Afro
TTITLE19=W.C. Clark - Got To Find A Lover
TTITLE20=Lucinda Williams - Righteously
EXTD=
EXTT0=
EXTT1=
EXTT2=
EXTT3=
EXTT4=
EXTT5=
EXTT6=
EXTT7=
EXTT8=
EXTT9=
EXTT10=
EXTT11=
EXTT12=
EXTT13=
EXTT14=
EXTT15=
EXTT16=
EXTT17=
EXTT18=
EXTT19=
EXTT20=
PLAYORDER=
